<svg xmlns="http://www.w3.org/2000/svg" xmlns:xlink="http://www.w3.org/1999/xlink" viewBox="0 0 469 58.166">
  <defs>
    <style>
      .cls-1 {
        clip-path: url(#clip-michele-pelafas-logo);
      }

      .cls-2 {
        fill: rgba(0,0,0,0);
      }
    </style>
    <clipPath id="clip-michele-pelafas-logo">
      <rect width="469" height="58.166"/>
    </clipPath>
  </defs>
  <g id="michele-pelafas-logo" class="cls-1">
    <g id="Layer_4" data-name="Layer 4">
      <path id="Path_1" data-name="Path 1" d="M20.833,19.625l-4.5,27.25h-3.25L18.417,9.958h2.667L34,40.791,47.083,9.958H49.75l5.083,36.917H51.5l-4.333-27L35.333,46.958h-2.75Z"/>
    </g>
    <path id="I" d="M61.875,9.749h3.732V47.1H61.875Z"/>
    <path id="C" d="M108.966,16.707l-2.948,2.255a16.107,16.107,0,0,0-5.846-4.82,17.124,17.124,0,0,0-7.5-1.648,16.581,16.581,0,0,0-8.281,2.133,15.4,15.4,0,0,0-5.912,5.755,15.94,15.94,0,0,0-2.106,8.135,15.272,15.272,0,0,0,4.668,11.407,16.234,16.234,0,0,0,11.813,4.587,16.614,16.614,0,0,0,13.135-6.125l2.943,2.239a18.834,18.834,0,0,1-6.978,5.487A21.88,21.88,0,0,1,92.62,48.04q-9.8-.014-15.453-6.547a19.684,19.684,0,0,1-4.729-13.312A18.5,18.5,0,0,1,78.209,14.39,19.828,19.828,0,0,1,92.626,8.812a21.138,21.138,0,0,1,9.442,2.083A18.339,18.339,0,0,1,108.966,16.707Z"/>
    <path id="H" d="M116.389,9.749h3.732V25.415h19.018V9.749h3.732V47.1h-3.732V29.071H120.121V47.1h-3.732Z"/>
    <path id="E" d="M151.986,9.749h21.405V13.4H155.719V25.11h17.519v3.656H155.719V43.442h17.519V47.1H151.986Z"/>
    <path id="L" d="M179.84,9.749h3.732V43.493h14.371v3.6h-18.1Z"/>
    <path id="E-2" data-name="E" d="M203.885,9.749h21.4V13.4H207.617V25.11h17.52v3.656h-17.52V43.442h17.52V47.1H203.885Z"/>
    <path id="P" d="M246.109,9.749h7.44a42.887,42.887,0,0,1,8.633.558,9.583,9.583,0,0,1,5.23,3.237,9.326,9.326,0,0,1,2.031,6.158,9.416,9.416,0,0,1-1.98,6.157A9.744,9.744,0,0,1,262,29.122a48.284,48.284,0,0,1-9.5.609h-2.666V47.1h-3.733Zm3.733,3.656v12.67l6.322.076a16.523,16.523,0,0,0,5.611-.7,5.747,5.747,0,0,0,2.793-2.255,6.245,6.245,0,0,0,1.016-3.485,6.161,6.161,0,0,0-1.016-3.433,5.6,5.6,0,0,0-2.678-2.217,16.129,16.129,0,0,0-5.447-.659Z"/>
    <path id="E-3" data-name="E" d="M276.934,9.749h21.4V13.4H280.666V25.11h17.52v3.656h-17.52V43.442h17.52V47.1H276.934Z"/>
    <path id="L-2" data-name="L" d="M304.787,9.749h3.733V43.493h14.371v3.6h-18.1Z"/>
    <g id="A">
      <g id="Group_1" data-name="Group 1">
        <path id="Path_2" data-name="Path 2" class="cls-2" d="M338.208,32.875"/>
        <path id="Path_3" data-name="Path 3" d="M335.5,29.083h18.125l6.625,17.958h-4.125l-5.208-14.208-12.708.042-5.25,14.208h-4.167Z"/>
        <path id="Path_4" data-name="Path 4" d="M344.542,15.708l5.25,14.125,3.833-.75L346.292,9.708h-3.458L335.5,29.083h4.125Z"/>
      </g>
      <g id="Group_2" data-name="Group 2">
        <path id="Path_5" data-name="Path 5" class="cls-2" d="M399.875,32.875"/>
        <path id="Path_6" data-name="Path 6" d="M397.167,29.083h18.125l6.625,17.958h-4.125l-5.208-14.208-12.708.042-5.25,14.208h-4.167Z"/>
        <path id="Path_7" data-name="Path 7" d="M406.208,15.708l5.25,14.125,3.833-.75L407.958,9.708H404.5l-7.333,19.375h4.125Z"/>
      </g>
    </g>
    <path id="F" d="M367.273,9.794h18.713V13.45h-14.98V25.155h14.98v3.657h-14.98V47.144h-3.733Z"/>
    <g id="S">
      <path id="Path_8" data-name="Path 8" d="M427.127,37.455a10.294,10.294,0,0,0,1.395,3.276A13.928,13.928,0,0,0,433.73,45.6a18.2,18.2,0,0,0,10.67,1.854,14.1,14.1,0,0,0,6.674-2.334,10.23,10.23,0,0,0-.091-16.684,15.208,15.208,0,0,0-3.157-1.626,29.415,29.415,0,0,0-4.683-1.417,38.016,38.016,0,0,1-5.915-1.38,6.907,6.907,0,0,1-4.279-4.032,5.832,5.832,0,0,1,1.711-5.792,9.088,9.088,0,0,1,5.808-2.262,11.109,11.109,0,0,1,6.3,1.5,8.9,8.9,0,0,1,3.966,5.043l3.59-1a12.178,12.178,0,0,0-6.58-7.567,16.786,16.786,0,0,0-8.193-1.165,16.314,16.314,0,0,0-3.367.568,10.613,10.613,0,0,0-6.651,5.614,8.916,8.916,0,0,0,.619,8.564c1.721,2.519,4.71,3.857,7.655,4.651s6.02,1.176,8.825,2.375c4.235,1.811,6.469,7.255,2.985,11-1.91,2.053-4.921,2.691-7.725,2.647-3.335-.051-6.861-1.048-9.007-3.6a16.29,16.29,0,0,1-2.294-4.172A31.562,31.562,0,0,0,427.127,37.455Z"/>
    </g>
  </g>
</svg>
